<svg xmlns="http://www.w3.org/2000/svg" viewBox="0 0 24 24" role="img" aria-label="Google Play">
  <title>Google Play</title>
  <defs>
    <linearGradient id="gp-a" x1="0" x2="1" y1="0" y2="1">
      <stop offset="0" stop-color="#00A2FF"/>
      <stop offset="1" stop-color="#0050E0"/>
    </linearGradient>
    <linearGradient id="gp-b" x1="0" x2="1" y1="1" y2="1">
      <stop offset="0" stop-color="#FFE000"/>
      <stop offset="1" stop-color="#FFBD00"/>
    </linearGradient>
    <linearGradient id="gp-c" x1="0" x2="1" y1="0" y2="1">
      <stop offset="0" stop-color="#FF3A44"/>
      <stop offset="1" stop-color="#C31162"/>
    </linearGradient>
    <linearGradient id="gp-d" x1="0" x2="1" y1="0" y2="1">
      <stop offset="0" stop-color="#32A071"/>
      <stop offset="1" stop-color="#2DA771"/>
    </linearGradient>
  </defs>
  <path fill="url(#gp-a)" d="M3.6 1.7a1.5 1.5 0 0 0-.6 1.2v18.2a1.5 1.5 0 0 0 .6 1.2L13.4 12 3.6 1.7Z"/>
  <path fill="url(#gp-b)" d="M16.7 8.7 13.4 12l3.3 3.3 4-2.3a1.5 1.5 0 0 0 0-2.6l-4-2.3Z"/>
  <path fill="url(#gp-c)" d="M3.6 1.7c-.4.1-.7.5-.7 1.2v18.2c0 .7.3 1.1.7 1.2L13.4 12 3.6 1.7Z"/>
  <path fill="url(#gp-d)" d="M13.4 12 3.6 22.3c.4.4 1.1.4 1.9 0l11.2-6.4-3.3-3.9Z"/>
</svg>